<svg xmlns="http://www.w3.org/2000/svg" viewBox="0 0 1024 1024" width="1024" height="1024"><g fill-rule="evenodd"><path d="M 0.00 956.50 L 511.00 62.50 L 514.50 64.00 L 560.50 148.00 L 575.50 170.00 L 587.50 196.00 L 727.50 443.00 L 1023.00 955.50 Z" fill="#0C2A4A"/><path d="M 786.50 958.00 L 780.50 940.00 L 741.50 862.00 L 637.50 679.00 L 622.50 647.00 L 592.50 562.00 L 581.00 504.50 L 611.50 578.00 L 636.50 626.00 L 667.50 674.00 L 728.50 753.00 L 763.50 805.00 L 789.50 852.00 L 809.50 898.00 L 812.00 900.50 L 917.00 900.50 L 919.50 898.00 L 777.50 649.00 L 745.50 605.00 L 720.00 579.50 L 686.00 553.50 L 652.00 534.50 L 601.00 516.50 L 595.50 511.00 L 588.50 491.00 L 588.50 485.00 L 595.00 484.50 L 646.00 500.50 L 687.00 520.50 L 737.00 554.50 L 800.50 619.00 L 779.50 580.00 L 756.00 556.50 L 722.00 529.50 L 681.00 504.50 L 657.00 493.50 L 583.50 470.00 L 576.50 447.00 L 585.00 443.50 L 653.00 462.50 L 701.00 484.50 L 731.00 502.50 L 734.50 501.00 L 724.00 484.50 L 669.00 457.50 L 663.50 452.00 L 528.50 212.00 L 511.00 185.50 L 357.50 454.00 L 302.00 482.50 L 288.50 500.00 L 291.00 503.50 L 354.00 468.50 L 399.00 452.50 L 437.00 443.50 L 445.50 445.00 L 439.50 469.00 L 433.00 473.50 L 393.00 482.50 L 354.00 498.50 L 299.00 530.50 L 246.50 576.00 L 222.50 618.00 L 223.00 620.50 L 252.50 586.00 L 284.00 556.50 L 341.00 517.50 L 377.00 500.50 L 427.00 484.50 L 434.50 485.00 L 427.50 511.00 L 421.00 516.50 L 374.00 532.50 L 338.00 552.50 L 302.00 579.50 L 271.50 611.00 L 240.50 656.00 L 103.50 899.00 L 211.00 900.50 L 214.50 897.00 L 233.50 852.00 L 267.50 793.00 L 375.50 645.00 L 416.50 569.00 L 441.00 508.50 L 439.50 527.00 L 423.50 585.00 L 398.50 651.00 L 364.50 716.00 L 308.50 810.00 L 249.50 925.00 L 236.50 953.00 L 237.00 958.50 L 248.50 957.00 L 294.50 861.00 L 335.50 785.00 L 378.50 714.00 L 420.50 628.00 L 436.50 582.00 L 454.50 512.00 L 471.00 417.50 L 468.50 471.00 L 458.50 541.00 L 430.50 656.00 L 407.50 719.00 L 344.50 851.00 L 328.50 894.00 L 330.00 900.50 L 457.00 900.50 L 460.50 898.00 L 497.50 415.00 L 497.50 386.00 L 483.50 339.00 L 478.00 331.50 L 462.50 363.00 L 450.50 429.00 L 444.00 432.50 L 405.00 438.50 L 380.00 447.50 L 375.50 446.00 L 489.50 243.00 L 504.00 222.50 L 506.50 250.00 L 506.50 956.00 L 508.00 958.50 L 515.50 958.00 L 516.50 265.00 L 519.00 220.50 L 647.50 446.00 L 646.00 448.50 L 619.00 439.50 L 573.50 430.00 L 567.50 412.00 L 560.50 364.00 L 544.00 331.50 L 525.50 387.00 L 562.50 898.00 L 566.00 900.50 L 693.00 900.50 L 694.50 895.00 L 669.50 832.00 L 617.50 724.00 L 589.50 647.00 L 563.50 535.00 L 554.50 472.00 L 552.00 414.50 L 561.50 474.00 L 577.50 546.00 L 593.50 602.00 L 615.50 658.00 L 720.50 845.00 L 771.50 950.00 L 777.00 958.50 L 786.50 958.00 Z" fill="#0C2A4A"/><path d="M 643.50 445.00 L 521.00 228.50 L 519.50 262.00 L 538.50 297.00 L 618.50 436.00 L 643.50 445.00 Z" fill="#0C2A4A"/><path d="M 383.50 444.00 L 404.50 437.00 L 468.50 326.00 L 488.50 285.00 L 503.50 263.00 L 502.00 229.50 L 490.50 246.00 L 487.50 258.00 L 470.50 281.00 L 444.50 333.00 L 403.50 399.00 L 380.50 441.00 L 379.50 444.00 L 383.50 444.00 Z" fill="#0C2A4A"/><path d="M 421.00 403.50 L 420.00 401.50 L 421.00 403.50 Z" fill="#0C2A4A"/><path d="M 472.00 416.50 L 472.00 411.50 L 472.00 416.50 Z" fill="#0C2A4A"/><path d="M 546.00 495.50 L 543.50 491.00 L 544.00 476.50 L 546.00 495.50 Z" fill="#0C2A4A"/><path d="M 451.00 860.50 L 387.50 795.00 L 386.50 789.00 L 418.50 723.00 L 444.50 650.00 L 459.50 592.00 L 478.00 495.50 L 453.50 856.00 L 451.00 860.50 Z" fill="#0C2A4A"/><path d="M 573.00 860.50 L 569.50 857.00 L 568.50 845.00 L 545.50 527.00 L 546.00 500.50 L 559.50 575.00 L 576.50 642.00 L 605.50 726.00 L 636.50 789.00 L 634.50 796.00 L 573.00 860.50 Z" fill="#0C2A4A"/><path d="M 442.00 508.50 L 442.00 505.50 L 442.00 508.50 Z" fill="#0C2A4A"/><path d="M 310.00 713.50 L 258.50 661.00 L 257.50 651.00 L 289.50 608.00 L 323.00 577.50 L 357.00 554.50 L 386.00 540.50 L 419.00 529.50 L 401.50 574.00 L 377.50 619.00 L 348.50 664.00 L 310.00 713.50 Z" fill="#0C2A4A"/><path d="M 714.00 713.50 L 708.50 710.00 L 667.50 654.00 L 642.50 613.00 L 612.50 554.00 L 604.50 534.00 L 606.00 529.50 L 648.00 545.50 L 696.00 574.50 L 733.50 609.00 L 766.50 652.00 L 764.50 661.00 L 714.00 713.50 Z" fill="#0C2A4A"/><path d="M 318.50 699.00 L 349.50 659.00 L 372.50 623.00 L 399.50 573.00 L 416.00 532.50 L 376.00 547.50 L 329.00 575.50 L 290.50 610.00 L 265.50 643.00 L 318.50 699.00 Z" fill="#0C2A4A"/><path d="M 705.50 700.00 L 757.50 643.00 L 730.50 609.00 L 695.00 576.50 L 671.00 559.50 L 628.00 538.50 L 609.00 533.50 L 614.50 553.00 L 640.50 605.00 L 668.50 652.00 L 705.50 700.00 Z" fill="#0C2A4A"/><path d="M 451.50 837.00 L 473.00 534.50 L 467.50 568.00 L 462.50 581.00 L 461.50 598.00 L 454.50 616.00 L 445.50 657.00 L 422.50 720.00 L 394.50 778.00 L 451.50 837.00 Z" fill="#0C2A4A"/><path d="M 551.50 542.00 L 550.00 534.50 L 551.50 542.00 Z" fill="#0C2A4A"/><path d="M 571.50 839.00 L 627.50 777.00 L 614.50 753.00 L 585.50 682.00 L 580.50 658.00 L 570.50 633.00 L 562.50 591.00 L 557.50 582.00 L 551.00 543.50 L 550.50 568.00 L 553.50 588.00 L 556.50 589.00 L 554.50 624.00 L 559.50 659.00 L 559.50 693.00 L 563.50 706.00 L 563.50 740.00 L 571.50 839.00 Z" fill="#0C2A4A"/><path d="M 348.00 567.50 L 348.00 567.50 Z" fill="#0C2A4A"/><path d="M 675.00 611.50 L 675.00 611.50 Z" fill="#0C2A4A"/><path d="M 896.00 889.50 L 819.00 888.50 L 798.50 844.00 L 769.50 793.00 L 721.50 727.00 L 721.50 722.00 L 774.00 667.50 L 890.50 869.00 L 899.50 886.00 L 896.00 889.50 Z" fill="#0C2A4A"/><path d="M 199.00 889.50 L 123.50 887.00 L 242.50 677.00 L 250.00 668.50 L 301.50 725.00 L 250.50 798.00 L 232.50 829.00 L 205.50 887.00 L 199.00 889.50 Z" fill="#0C2A4A"/><path d="M 199.50 887.00 L 208.50 877.00 L 210.50 868.00 L 230.50 830.00 L 231.50 822.00 L 234.50 822.00 L 261.50 776.00 L 291.50 736.00 L 242.00 682.50 L 218.50 729.00 L 206.50 744.00 L 193.50 772.00 L 175.50 798.00 L 138.50 868.00 L 127.50 883.00 L 129.00 886.50 L 142.00 887.50 L 199.50 887.00 Z" fill="#0C2A4A"/><path d="M 896.50 887.00 L 808.50 730.00 L 791.50 706.00 L 781.00 682.50 L 731.50 736.00 L 754.50 764.00 L 762.50 781.00 L 779.50 805.00 L 812.50 864.00 L 810.50 866.00 L 821.00 886.50 L 896.50 887.00 Z" fill="#0C2A4A"/><path d="M 705.00 699.50 L 705.00 699.50 Z" fill="#0C2A4A"/><path d="M 447.00 889.50 L 344.50 888.00 L 355.50 855.00 L 380.00 804.50 L 449.50 875.00 L 451.50 884.00 L 447.00 889.50 Z" fill="#0C2A4A"/><path d="M 669.00 889.50 L 575.00 889.50 L 571.50 881.00 L 608.50 838.00 L 643.00 804.50 L 658.50 834.00 L 678.50 884.00 L 677.00 888.50 L 669.00 889.50 Z" fill="#0C2A4A"/><path d="M 437.50 887.00 L 374.00 819.50 L 346.50 885.00 L 437.50 887.00 Z" fill="#0C2A4A"/><path d="M 655.50 887.00 L 675.50 885.00 L 649.00 819.50 L 587.50 886.00 L 655.50 887.00 Z" fill="#0C2A4A"/><path d="M 1023.00 959.50 L 0.00 960.50 Z" fill="#0C2A4A"/><path d="M 786.00 958.50 L 777.00 958.50 L 771.50 950.00 L 720.50 845.00 L 615.50 658.00 L 593.50 602.00 L 577.50 546.00 L 561.50 474.00 L 552.00 414.50 L 554.50 472.00 L 563.50 535.00 L 589.50 647.00 L 617.50 724.00 L 669.50 832.00 L 694.50 895.00 L 693.00 900.50 L 566.00 900.50 L 562.50 898.00 L 525.50 387.00 L 544.00 331.50 L 560.50 364.00 L 567.50 412.00 L 573.50 430.00 L 619.00 439.50 L 646.00 448.50 L 647.50 446.00 L 519.00 220.50 L 516.50 265.00 L 515.50 958.00 L 508.00 958.50 L 506.50 956.00 L 506.50 250.00 L 504.00 222.50 L 489.50 243.00 L 375.50 446.00 L 380.00 447.50 L 405.00 438.50 L 444.00 432.50 L 450.50 429.00 L 462.50 363.00 L 478.00 331.50 L 483.50 339.00 L 497.50 386.00 L 497.50 415.00 L 460.50 898.00 L 457.00 900.50 L 330.00 900.50 L 328.50 894.00 L 358.50 820.00 L 398.50 740.00 L 430.50 656.00 L 458.50 541.00 L 468.50 471.00 L 471.00 417.50 L 454.50 512.00 L 436.50 582.00 L 420.50 628.00 L 378.50 714.00 L 339.50 778.00 L 294.50 861.00 L 248.50 957.00 L 237.00 958.50 L 236.50 953.00 L 249.50 925.00 L 308.50 810.00 L 364.50 716.00 L 398.50 651.00 L 423.50 585.00 L 439.50 527.00 L 442.00 505.50 L 416.50 569.00 L 375.50 645.00 L 267.50 793.00 L 233.50 852.00 L 214.50 897.00 L 211.00 900.50 L 103.50 899.00 L 240.50 656.00 L 271.50 611.00 L 302.00 579.50 L 338.00 552.50 L 374.00 532.50 L 421.00 516.50 L 427.50 511.00 L 434.50 485.00 L 427.00 484.50 L 377.00 500.50 L 341.00 517.50 L 284.00 556.50 L 252.50 586.00 L 228.50 615.00 L 223.00 620.50 L 222.50 618.00 L 246.50 576.00 L 299.00 530.50 L 354.00 498.50 L 393.00 482.50 L 433.00 473.50 L 439.50 469.00 L 445.50 445.00 L 437.00 443.50 L 399.00 452.50 L 354.00 468.50 L 291.00 503.50 L 288.50 500.00 L 299.00 484.50 L 357.50 454.00 L 511.00 185.50 L 528.50 212.00 L 663.50 452.00 L 669.00 457.50 L 724.00 484.50 L 734.50 501.00 L 731.00 502.50 L 701.00 484.50 L 653.00 462.50 L 585.00 443.50 L 576.50 447.00 L 583.50 470.00 L 657.00 493.50 L 681.00 504.50 L 722.00 529.50 L 756.00 556.50 L 779.50 580.00 L 800.50 619.00 L 737.00 554.50 L 687.00 520.50 L 646.00 500.50 L 595.00 484.50 L 589.00 484.50 L 588.50 491.00 L 595.50 511.00 L 601.00 516.50 L 652.00 534.50 L 686.00 553.50 L 720.00 579.50 L 745.50 605.00 L 777.50 649.00 L 919.50 898.00 L 917.00 900.50 L 812.00 900.50 L 809.50 898.00 L 789.50 852.00 L 763.50 805.00 L 728.50 753.00 L 667.50 674.00 L 636.50 626.00 L 611.50 578.00 L 581.00 504.50 L 592.50 562.00 L 622.50 647.00 L 637.50 679.00 L 741.50 862.00 L 780.50 940.00 L 786.00 958.50 Z" fill="#D6B35E"/><path d="M 472.50 416.00 L 472.00 411.50 L 472.50 416.00 Z" fill="#D6B35E"/><path d="M 546.50 495.00 L 544.00 476.50 L 543.50 491.00 L 546.50 495.00 Z" fill="#D6B35E"/><path d="M 451.50 860.00 L 475.50 558.00 L 478.00 495.50 L 459.50 592.00 L 444.50 650.00 L 418.50 723.00 L 386.50 789.00 L 387.50 795.00 L 443.50 855.00 L 451.50 860.00 Z" fill="#D6B35E"/><path d="M 573.50 860.00 L 634.50 796.00 L 636.50 789.00 L 605.50 726.00 L 576.50 642.00 L 559.50 575.00 L 546.00 500.50 L 545.50 527.00 L 568.50 845.00 L 569.50 857.00 L 573.50 860.00 Z" fill="#D6B35E"/><path d="M 310.50 713.00 L 348.50 664.00 L 377.50 619.00 L 401.50 574.00 L 419.00 529.50 L 379.00 543.50 L 357.00 554.50 L 323.00 577.50 L 289.50 608.00 L 257.50 651.00 L 258.50 661.00 L 293.50 699.00 L 310.50 713.00 Z" fill="#D6B35E"/><path d="M 714.50 713.00 L 764.50 661.00 L 766.50 652.00 L 733.50 609.00 L 696.00 574.50 L 670.00 556.50 L 633.00 538.50 L 606.00 529.50 L 604.50 534.00 L 612.50 554.00 L 642.50 613.00 L 687.50 682.00 L 708.50 710.00 L 714.50 713.00 Z" fill="#D6B35E"/><path d="M 896.50 889.00 L 899.50 886.00 L 890.50 869.00 L 774.00 667.50 L 721.50 722.00 L 721.50 727.00 L 769.50 793.00 L 798.50 844.00 L 819.00 888.50 L 896.50 889.00 Z" fill="#D6B35E"/><path d="M 199.50 889.00 L 205.50 887.00 L 232.50 829.00 L 250.50 798.00 L 301.50 725.00 L 250.00 668.50 L 242.50 677.00 L 123.50 887.00 L 142.00 889.50 L 199.50 889.00 Z" fill="#D6B35E"/><path d="M 447.50 889.00 L 451.50 884.00 L 449.50 875.00 L 380.00 804.50 L 355.50 855.00 L 344.50 888.00 L 447.50 889.00 Z" fill="#D6B35E"/><path d="M 669.50 889.00 L 677.00 888.50 L 678.50 884.00 L 658.50 834.00 L 643.00 804.50 L 608.50 838.00 L 571.50 881.00 L 575.00 889.50 L 669.50 889.00 Z" fill="#D6B35E"/></g></svg>